<svg xmlns="http://www.w3.org/2000/svg" width="32" height="32">
  <path d="M7 0a.997.997 0 0 1 1 1v1h16V1a.997.997 0 0 1 1-1 .997.997 0 0 1 1 1v1h2a4.003 4.003 0 0 1 4 4v22a4.003 4.003 0 0 1-4 4H4a4.003 4.003 0 0 1-4-4V6a4.003 4.003 0 0 1 4-4h2V1a.997.997 0 0 1 1-1zM4 4a2 2 0 0 0-2 2v22a2 2 0 0 0 2 2h24a2 2 0 0 0 2-2V6a2 2 0 0 0-2-2H4z"/>
  <path d="M5 8a.997.997 0 0 1 1-1h20a.997.997 0 0 1 1 1v2a.997.997 0 0 1-1 1H6a.997.997 0 0 1-1-1V8zm17 7a.997.997 0 0 1 1-1h2a.997.997 0 0 1 1 1v2a.997.997 0 0 1-1 1h-2a.997.997 0 0 1-1-1v-2zm-6 0a.997.997 0 0 1 1-1h2a.997.997 0 0 1 1 1v2a.997.997 0 0 1-1 1h-2a.997.997 0 0 1-1-1v-2zM6 21a.997.997 0 0 1 1-1h2a.997.997 0 0 1 1 1v2a.997.997 0 0 1-1 1H7a.997.997 0 0 1-1-1v-2zm6 0a.997.997 0 0 1 1-1h2a.997.997 0 0 1 1 1v2a.997.997 0 0 1-1 1h-2a.997.997 0 0 1-1-1v-2z"/>
</svg>
