<svg xmlns="http://www.w3.org/2000/svg" width="32" height="32">
  <path d="M16 30A14.002 14.002 0 0 1 2 16a13.998 13.998 0 1 1 23.899 9.899A13.996 13.996 0 0 1 16 30zm0 2a15.997 15.997 0 0 0 16-16A15.997 15.997 0 0 0 16 0 15.997 15.997 0 0 0 0 16a15.997 15.997 0 0 0 16 16z"/>
  <path d="m21.94 9.94-.04.044-6.946 8.85-4.186-4.188a1.497 1.497 0 0 0-2.083.037 1.5 1.5 0 0 0-.037 2.083l5.292 5.294a1.482 1.482 0 0 0 1.087.438 1.51 1.51 0 0 0 1.071-.478l7.984-9.98a1.502 1.502 0 0 0-1.09-2.535 1.498 1.498 0 0 0-1.052.435z"/>
</svg>
