<svg xmlns="http://www.w3.org/2000/svg" width="32" height="32">
  <path d="M16 9.508a6.49 6.49 0 1 0 6.492 6.49 6.495 6.495 0 0 0-1.901-4.591A6.495 6.495 0 0 0 16 9.506zM11.508 16A4.489 4.489 0 0 1 16 11.508 4.489 4.489 0 0 1 20.492 16 4.489 4.489 0 0 1 16 20.492 4.489 4.489 0 0 1 11.508 16z"/>
  <path d="M19.592 2.686c-1.054-3.58-6.13-3.58-7.184 0l-.188.638a1.754 1.754 0 0 1-1.006 1.12 1.756 1.756 0 0 1-1.504-.079l-.584-.32c-3.28-1.784-6.866 1.804-5.08 5.082l.318.584a1.746 1.746 0 0 1-1.041 2.51l-.638.188c-3.58 1.054-3.58 6.13 0 7.184l.638.188a1.754 1.754 0 0 1 1.12 1.006 1.756 1.756 0 0 1-.079 1.504l-.32.584c-1.784 3.28 1.802 6.868 5.082 5.08l.584-.318a1.746 1.746 0 0 1 2.51 1.04l.188.638c1.054 3.58 6.13 3.58 7.184 0l.188-.638a1.754 1.754 0 0 1 1.006-1.12 1.74 1.74 0 0 1 1.504.08l.584.32c3.28 1.786 6.868-1.804 5.08-5.082l-.318-.584a1.746 1.746 0 0 1 1.04-2.51l.638-.188c3.58-1.054 3.58-6.13 0-7.184l-.638-.188a1.754 1.754 0 0 1-1.12-1.006 1.74 1.74 0 0 1 .08-1.504l.32-.584c1.786-3.28-1.804-6.866-5.082-5.08l-.584.318a1.746 1.746 0 0 1-2.51-1.041l-.188-.638zm-5.266.566c.492-1.67 2.856-1.67 3.348 0l.188.638a3.748 3.748 0 0 0 5.385 2.23l.582-.32c1.528-.83 3.2.84 2.368 2.37l-.318.584a3.74 3.74 0 0 0-.17 3.225 3.75 3.75 0 0 0 2.403 2.159l.636.188c1.67.492 1.67 2.856 0 3.348l-.638.188a3.748 3.748 0 0 0-2.23 5.385l.32.582c.83 1.528-.84 3.2-2.37 2.368l-.582-.318a3.76 3.76 0 0 0-3.227-.171 3.746 3.746 0 0 0-2.159 2.403l-.188.636c-.492 1.67-2.856 1.67-3.348 0l-.188-.638a3.737 3.737 0 0 0-2.16-2.401 3.752 3.752 0 0 0-3.225.171l-.584.32c-1.528.83-3.2-.84-2.368-2.37l.318-.582c.268-.491.423-1.036.452-1.594s-.066-1.116-.279-1.633a3.745 3.745 0 0 0-2.404-2.161l-.638-.188c-1.67-.492-1.67-2.856 0-3.348l.638-.188a3.742 3.742 0 0 0 2.229-5.382l-.32-.584c-.83-1.528.84-3.2 2.37-2.368l.584.318a3.756 3.756 0 0 0 3.225.171 3.748 3.748 0 0 0 2.16-2.401l.188-.638z"/>
</svg>
